<?xml version="1.0" standalone="no"?><!-- Generator: Gravit.io --><svg xmlns="http://www.w3.org/2000/svg" xmlns:xlink="http://www.w3.org/1999/xlink" style="isolation:isolate" viewBox="151.722 55.668 250 250" width="250" height="250"><path d=" M 366.934 199.225 C 358.193 199.29 350.624 202.091 344.275 206.261 C 341.932 200.072 339.588 194.665 339.197 190.626 C 338.757 185.935 338.22 183.069 338.757 177.466 C 339.295 171.863 341.736 163.915 341.736 163.264 C 341.687 162.678 341.199 159.811 336.169 159.746 C 331.14 159.681 326.793 161.049 326.305 162.808 C 325.817 164.567 324.84 168.606 324.205 172.775 C 323.326 178.899 314.146 200.593 308.921 211.994 C 307.212 207.564 305.747 203.655 305.454 200.528 C 305.014 195.837 304.477 192.971 305.014 187.368 C 305.551 181.766 307.993 173.818 307.993 173.166 C 307.944 172.58 307.456 169.713 302.426 169.648 C 297.396 169.583 293.05 170.951 292.562 172.71 C 292.074 174.469 291.537 178.639 290.462 182.678 C 289.437 186.717 277.229 222.938 274.054 232.385 C 272.443 237.206 271.027 241.049 270.001 243.655 C 268.976 246.261 269.953 243.85 269.855 244.111 C 268.976 246.326 268.488 247.564 268.488 247.564 L 268.488 247.629 C 267.804 249.258 267.071 250.821 266.73 250.821 C 266.485 250.821 265.997 246.456 266.827 240.463 C 268.634 227.89 273.029 208.28 272.98 207.564 C 272.98 207.238 273.81 203.785 270.148 202.026 C 266.583 200.267 265.314 203.199 265.021 203.199 C 264.728 203.199 264.483 204.241 264.483 204.241 C 264.483 204.241 268.439 182.156 256.914 182.156 C 249.687 182.156 239.725 192.645 234.793 202.222 C 231.668 204.502 225.027 209.323 217.995 214.469 C 215.309 216.424 212.526 218.508 209.889 220.398 L 209.352 219.616 C 195.386 199.746 169.553 185.674 170.628 158.964 C 171.018 149.257 173.557 123.655 220.241 92.645 C 258.477 67.238 289.095 74.208 294.418 89.713 C 301.987 111.863 278.059 153.036 238.309 158.964 C 223.171 161.244 215.211 153.427 213.209 150.495 C 211.11 147.433 210.817 147.303 210.035 147.889 C 208.766 148.801 209.547 151.538 210.035 153.166 C 211.207 157.27 216.09 164.567 224.392 168.215 C 231.668 171.407 249.443 173.166 270.929 162.091 C 295.004 149.648 313.804 115.12 308.286 86.26 C 302.67 56.879 266.144 47.238 231.619 63.589 C 211.061 73.361 188.793 88.606 172.776 108.606 C 153.731 132.319 150.704 153.036 151.974 161.635 C 156.417 192.319 188.109 212.319 200.806 227.108 C 200.171 227.564 199.585 228.02 199.048 228.411 C 192.7 232.58 168.528 249.453 162.472 267.303 C 155.636 287.499 163.547 302.027 168.821 303.981 C 185.131 310.04 201.831 299.16 210.865 281.245 C 219.851 263.329 218.776 240.072 214.625 229.453 L 214.479 229.062 L 219.46 225.153 C 222.683 222.613 225.857 220.267 228.64 218.248 C 227.078 223.916 225.955 230.626 225.369 240.398 C 224.685 251.864 228.201 266.717 232.84 272.58 C 234.891 275.121 237.333 275.186 238.846 275.186 C 244.218 275.186 246.66 269.258 249.345 262.157 C 252.666 253.492 255.596 243.46 255.596 243.46 C 255.596 243.46 251.933 270.626 261.944 270.626 C 265.607 270.626 269.269 264.307 270.929 261.049 L 270.929 261.114 C 270.929 261.114 271.027 260.919 271.222 260.463 C 271.613 259.681 271.808 259.225 271.808 259.225 L 271.808 259.095 C 273.273 255.707 276.545 247.955 281.428 235.121 C 287.728 218.574 293.783 197.857 293.783 197.857 C 293.783 197.857 294.369 202.938 296.176 211.277 C 297.25 216.228 299.594 221.635 301.401 226.912 C 299.936 229.648 299.057 231.212 299.057 231.212 L 299.106 231.277 C 297.934 233.362 296.615 235.577 295.248 237.792 C 290.267 245.74 284.309 254.795 283.528 257.401 C 282.6 260.463 282.795 262.743 284.602 264.567 C 285.921 265.87 288.265 266.131 290.755 265.87 C 295.248 265.479 298.373 263.981 299.936 263.069 C 302.377 261.896 305.161 260.137 307.847 257.531 C 312.73 252.71 315.709 245.87 315.416 236.749 C 315.269 231.733 314.048 226.782 312.534 222.091 C 312.974 221.245 313.413 220.398 313.853 219.486 C 321.568 204.437 327.526 187.889 327.526 187.889 C 327.526 187.889 328.112 192.971 329.919 201.31 C 330.847 205.544 332.702 210.17 334.362 214.73 C 327.135 222.613 322.594 231.733 321.031 237.727 C 318.15 248.802 320.396 253.818 324.645 254.991 C 326.549 255.512 329.284 254.339 331.335 253.166 C 333.874 252.059 336.951 250.17 339.783 247.368 C 344.666 242.548 349.354 235.837 349.11 226.782 C 348.963 222.613 348.133 218.508 347.01 214.6 C 353.163 211.212 361.123 209.258 371.231 210.886 C 392.961 214.274 397.259 232.385 396.428 239.942 C 395.598 247.499 391.057 251.668 389.543 252.971 C 388.029 254.209 387.541 254.665 387.687 255.577 C 387.883 256.945 388.566 256.88 389.885 256.619 C 391.692 256.228 401.312 250.43 401.702 236.489 C 402.288 218.574 389.543 199.03 366.934 199.225 L 366.934 199.225 Z  M 199.341 274.6 C 192.163 285.088 182.054 289.062 177.757 285.675 C 173.118 282.092 174.925 266.652 183.763 255.512 C 189.135 248.736 196.118 242.482 200.708 238.639 C 201.734 237.792 203.296 236.554 205.152 235.056 C 205.445 234.795 205.64 234.665 205.64 234.665 C 205.982 234.404 206.373 234.078 206.763 233.753 C 210.035 249.649 206.91 263.59 199.341 274.6 L 199.341 274.6 Z  M 251.836 226.977 C 249.345 235.121 244.071 256.033 240.897 254.86 C 238.163 253.883 236.502 238.052 240.36 222.417 C 242.313 214.534 246.464 205.153 248.906 201.505 C 252.861 195.642 257.158 193.687 258.233 196.098 C 259.502 199.225 253.398 221.896 251.836 226.977 Z  M 295.15 254.6 C 294.076 255.316 293.099 255.837 292.66 255.447 C 292.318 255.186 293.099 254.209 293.099 254.209 C 293.099 254.209 298.52 246.456 300.668 242.873 C 301.889 240.789 303.354 238.378 304.917 235.642 L 304.917 236.424 C 304.917 245.805 298.178 252.059 295.15 254.6 L 295.15 254.6 Z  M 328.551 244.437 C 327.77 243.655 327.868 241.245 330.505 233.688 C 331.53 230.691 333.874 225.675 337.927 220.919 C 338.416 222.873 338.709 224.762 338.66 226.521 C 338.611 238.248 332.36 242.613 328.551 244.437 Z " fill="rgb(207,100,154)"/></svg>