<?xml version="1.0" standalone="no"?><!-- Generator: Gravit.io --><svg xmlns="http://www.w3.org/2000/svg" xmlns:xlink="http://www.w3.org/1999/xlink" style="isolation:isolate" viewBox="7.522 7.126 511.955 383.749" width="511.955" height="383.749"><path d=" M 448.238 227.485 C 430.338 227.585 414.838 231.885 401.838 238.285 C 397.038 228.785 392.238 220.485 391.438 214.285 C 390.538 207.085 389.438 202.685 390.538 194.085 C 391.638 185.485 396.638 173.285 396.638 172.285 C 396.538 171.385 395.538 166.985 385.238 166.885 C 374.938 166.785 366.038 168.885 365.038 171.585 C 364.038 174.285 362.038 180.485 360.738 186.885 C 358.938 196.285 340.138 229.585 329.438 247.085 C 325.938 240.285 322.938 234.285 322.338 229.485 C 321.438 222.285 320.338 217.885 321.438 209.285 C 322.538 200.685 327.538 188.485 327.538 187.485 C 327.438 186.585 326.438 182.185 316.138 182.085 C 305.838 181.985 296.938 184.085 295.938 186.785 C 294.938 189.485 293.838 195.885 291.638 202.085 C 289.538 208.285 264.538 263.885 258.038 278.385 C 254.738 285.785 251.838 291.685 249.738 295.685 C 247.638 299.685 249.638 295.985 249.438 296.385 C 247.638 299.785 246.638 301.685 246.638 301.685 L 246.638 301.785 C 245.238 304.285 243.738 306.685 243.038 306.685 C 242.538 306.685 241.538 299.985 243.238 290.785 C 246.938 271.485 255.938 241.385 255.838 240.285 C 255.838 239.785 257.538 234.485 250.038 231.785 C 242.738 229.085 240.138 233.585 239.538 233.585 C 238.938 233.585 238.438 235.185 238.438 235.185 C 238.438 235.185 246.538 201.285 222.938 201.285 C 208.138 201.285 187.738 217.385 177.638 232.085 C 171.238 235.585 157.638 242.985 143.238 250.885 C 137.738 253.885 132.038 257.085 126.638 259.985 L 125.538 258.785 C 96.938 228.285 44.038 206.685 46.238 165.685 C 47.038 150.785 52.238 111.485 147.838 63.885 C 226.138 24.885 288.838 35.585 299.738 59.385 C 315.238 93.385 266.238 156.585 184.838 165.685 C 153.838 169.185 137.538 157.185 133.438 152.685 C 129.138 147.985 128.538 147.785 126.938 148.685 C 124.338 150.085 125.938 154.285 126.938 156.785 C 129.338 163.085 139.338 174.285 156.338 179.885 C 171.238 184.785 207.638 187.485 251.638 170.485 C 300.938 151.385 339.438 98.385 328.138 54.085 C 316.638 8.985 241.838 -5.815 171.138 19.285 C 129.038 34.285 83.438 57.685 50.638 88.385 C 11.638 124.785 5.438 156.585 8.038 169.785 C 17.138 216.885 82.038 247.585 108.038 270.285 C 106.738 270.985 105.538 271.685 104.438 272.285 C 91.438 278.685 41.938 304.585 29.538 331.985 C 15.538 362.985 31.738 385.285 42.538 388.285 C 75.938 397.585 110.138 380.885 128.638 353.385 C 147.038 325.885 144.838 290.185 136.338 273.885 L 136.038 273.285 L 146.238 267.285 C 152.838 263.385 159.338 259.785 165.038 256.685 C 161.838 265.385 159.538 275.685 158.338 290.685 C 156.938 308.285 164.138 331.085 173.638 340.085 C 177.838 343.985 182.838 344.085 185.938 344.085 C 196.938 344.085 201.938 334.985 207.438 324.085 C 214.238 310.785 220.238 295.385 220.238 295.385 C 220.238 295.385 212.738 337.085 233.238 337.085 C 240.738 337.085 248.238 327.385 251.638 322.385 L 251.638 322.485 C 251.638 322.485 251.838 322.185 252.238 321.485 C 253.038 320.285 253.438 319.585 253.438 319.585 L 253.438 319.385 C 256.438 314.185 263.138 302.285 273.138 282.585 C 286.038 257.185 298.438 225.385 298.438 225.385 C 298.438 225.385 299.638 233.185 303.338 245.985 C 305.538 253.585 310.338 261.885 314.038 269.985 C 311.038 274.185 309.238 276.585 309.238 276.585 L 309.338 276.685 C 306.938 279.885 304.238 283.285 301.438 286.685 C 291.238 298.885 279.038 312.785 277.438 316.785 C 275.538 321.485 275.938 324.985 279.638 327.785 C 282.338 329.785 287.138 330.185 292.238 329.785 C 301.438 329.185 307.838 326.885 311.038 325.485 C 316.038 323.685 321.738 320.985 327.238 316.985 C 337.238 309.585 343.338 299.085 342.738 285.085 C 342.438 277.385 339.938 269.785 336.838 262.585 C 337.738 261.285 338.638 259.985 339.538 258.585 C 355.338 235.485 367.538 210.085 367.538 210.085 C 367.538 210.085 368.738 217.885 372.438 230.685 C 374.338 237.185 378.138 244.285 381.538 251.285 C 366.738 263.385 357.438 277.385 354.238 286.585 C 348.338 303.585 352.938 311.285 361.638 313.085 C 365.538 313.885 371.138 312.085 375.338 310.285 C 380.538 308.585 386.838 305.685 392.638 301.385 C 402.638 293.985 412.238 283.685 411.738 269.785 C 411.438 263.385 409.738 257.085 407.438 251.085 C 420.038 245.885 436.338 242.885 457.038 245.385 C 501.538 250.585 510.338 278.385 508.638 289.985 C 506.938 301.585 497.638 307.985 494.538 309.985 C 491.438 311.885 490.438 312.585 490.738 313.985 C 491.138 316.085 492.538 315.985 495.238 315.585 C 498.938 314.985 518.638 306.085 519.438 284.685 C 520.638 257.185 494.538 227.185 448.238 227.485 L 448.238 227.485 Z  M 105.038 343.185 C 90.338 359.285 69.638 365.385 60.838 360.185 C 51.338 354.685 55.038 330.985 73.138 313.885 C 84.138 303.485 98.438 293.885 107.838 287.985 C 109.938 286.685 113.138 284.785 116.938 282.485 C 117.538 282.085 117.938 281.885 117.938 281.885 C 118.638 281.485 119.438 280.985 120.238 280.485 C 126.938 304.885 120.538 326.285 105.038 343.185 L 105.038 343.185 Z  M 212.538 270.085 C 207.438 282.585 196.638 314.685 190.138 312.885 C 184.538 311.385 181.138 287.085 189.038 263.085 C 193.038 250.985 201.538 236.585 206.538 230.985 C 214.638 221.985 223.438 218.985 225.638 222.685 C 228.238 227.485 215.738 262.285 212.538 270.085 Z  M 301.238 312.485 C 299.038 313.585 297.038 314.385 296.138 313.785 C 295.438 313.385 297.038 311.885 297.038 311.885 C 297.038 311.885 308.138 299.985 312.538 294.485 C 315.038 291.285 318.038 287.585 321.238 283.385 L 321.238 284.585 C 321.238 298.985 307.438 308.585 301.238 312.485 L 301.238 312.485 Z  M 369.638 296.885 C 368.038 295.685 368.238 291.985 373.638 280.385 C 375.738 275.785 380.538 268.085 388.838 260.785 C 389.838 263.785 390.438 266.685 390.338 269.385 C 390.238 287.385 377.438 294.085 369.638 296.885 Z " fill="rgb(207,100,154)"/></svg>